<?xml version="1.0" encoding="utf-8"?>
<!-- Generator: Adobe Illustrator 16.0.0, SVG Export Plug-In . SVG Version: 6.00 Build 0)  -->
<!DOCTYPE svg PUBLIC "-//W3C//DTD SVG 1.0//EN" "http://www.w3.org/TR/2001/REC-SVG-20010904/DTD/svg10.dtd">
<svg version="1.0" id="Layer_1" xmlns="http://www.w3.org/2000/svg" xmlns:xlink="http://www.w3.org/1999/xlink" x="0px" y="0px"
	 width="32px" height="33px" viewBox="0 0 32 33" enable-background="new 0 0 32 33" xml:space="preserve">
<g>
	<path fill="#FFFFFF" d="M8.777,16.648c-0.112,0.111-0.183,0.177-0.25,0.247c-0.158,0.166-0.311,0.338-0.472,0.501
		c-0.592,0.6-1.297,0.794-2.117,0.589c-0.392-0.098-0.787-0.178-1.196-0.145C4.3,17.878,3.967,18.218,3.955,18.65
		c-0.011,0.41,0.305,0.651,0.696,0.519c0.117-0.039,0.221-0.113,0.36-0.186c-0.042,0.086-0.062,0.154-0.101,0.211
		c-0.234,0.339-0.577,0.407-0.95,0.351c-0.307-0.045-0.515-0.229-0.603-0.533c-0.091-0.314,0.034-0.672,0.343-0.893
		c0.217-0.154,0.458-0.271,0.688-0.405c0.099-0.057,0.197-0.117,0.325-0.193c-0.067-0.032-0.09-0.055-0.11-0.052
		c-0.415,0.046-0.81,0.157-1.16,0.393c-0.756,0.508-1,1.527-0.564,2.318c0.416,0.754,1.305,0.945,1.932,0.521
		c0.028-0.019,0.06-0.032,0.107-0.057c-0.207,0.454-1.079,0.748-1.915,0.426c-0.51-0.196-0.903-0.525-1.11-1.043
		c-0.201-0.505-0.118-1.008,0.064-1.552c-0.114,0.028-0.187,0.05-0.261,0.064c-0.242,0.044-0.484,0.12-0.727,0.121
		c-0.46,0.003-0.643-0.333-0.412-0.726c0.082-0.139,0.198-0.255,0.297-0.38c0.042,0.028,0.064,0.035,0.067,0.048
		c0.114,0.464,0.44,0.629,0.894,0.45c0.247-0.097,0.436-0.27,0.602-0.469c0.211-0.254,0.412-0.518,0.626-0.769
		c0.272-0.321,0.589-0.588,1.015-0.671c0.213-0.042,0.437-0.036,0.656-0.048c0.106-0.006,0.252,0.029,0.263-0.118
		c0.008-0.133-0.136-0.164-0.243-0.168c-0.136-0.008-0.275,0.005-0.41,0.024c-0.296,0.041-0.585,0.045-0.867-0.069
		C3.117,15.627,2.931,15.347,2.938,15c0.003-0.19,0.087-0.333,0.236-0.441c0.155-0.113,0.364-0.153,0.618-0.118
		c-0.034,0.02-0.051,0.035-0.072,0.041c-0.193,0.055-0.334,0.17-0.351,0.376c-0.017,0.2,0.095,0.351,0.255,0.459
		c0.179,0.123,0.383,0.178,0.596,0.186c0.211,0.007,0.423,0.015,0.633-0.001c0.608-0.048,1.185,0.065,1.749,0.288
		c0.264,0.104,0.537,0.188,0.806,0.273c0.609,0.193,1.201,0.127,1.763-0.155c0.319-0.161,0.633-0.337,0.924-0.543
		c0.949-0.673,2.02-0.935,3.162-0.961c0.395-0.009,0.79,0.006,1.184-0.002c0.135-0.003,0.278-0.023,0.401-0.073
		c0.294-0.12,0.403-0.417,0.272-0.706c-0.153-0.337-0.445-0.475-0.79-0.519c-0.417-0.054-0.829-0.002-1.221,0.138
		c-0.638,0.229-1.271,0.471-1.899,0.727c-0.73,0.298-1.454,0.609-2.234,0.763c-1.648,0.325-2.975-0.219-4.042-1.477
		c-0.02-0.024-0.026-0.06-0.049-0.115c0.295,0.098,0.558,0.196,0.828,0.272c0.766,0.216,1.539,0.205,2.317,0.081
		c0.981-0.155,1.924-0.46,2.879-0.72c0.709-0.192,1.426-0.342,2.16-0.395c0.57-0.042,1.137,0.013,1.688,0.18
		c0.443,0.135,0.825,0.356,1.042,0.832c0.08-0.134,0.038-0.233,0-0.33c-0.125-0.321-0.356-0.553-0.635-0.741
		c-0.528-0.355-1.122-0.541-1.741-0.645c-0.926-0.156-1.858-0.175-2.798-0.129c-1.338,0.066-2.678,0.155-4.019,0.066
		C5.43,11.533,4.3,11.284,3.285,10.644c-0.944-0.596-1.628-1.426-2.104-2.421C0.927,7.687,0.743,7.116,0.528,6.561
		C0.519,6.537,0.527,6.508,0.527,6.45C0.575,6.5,0.606,6.528,0.632,6.561c1.265,1.532,2.882,2.535,4.751,3.157
		c0.926,0.309,1.876,0.503,2.844,0.609c0.957,0.104,1.916,0.183,2.874,0.281c0.984,0.101,1.976,0.166,2.932,0.44
		c0.394,0.113,0.786,0.261,1.147,0.453c0.796,0.424,1.281,1.081,1.354,2.005c0.001,0.026,0.013,0.053,0.021,0.078
		c0.002,0.008,0.013,0.013,0.043,0.042c0.024-0.063,0.057-0.113,0.061-0.166c0.062-0.682-0.152-1.266-0.635-1.75
		c-0.335-0.337-0.741-0.568-1.174-0.753c-0.663-0.282-1.359-0.453-2.069-0.541c-0.955-0.119-1.916-0.192-2.873-0.29
		C8.32,9.963,6.739,9.759,5.217,9.246C3.884,8.797,2.686,8.128,1.699,7.109C0.902,6.286,0.336,5.337,0.103,4.206
		C0.021,3.811-0.014,3.411,0.005,2.953C0.066,3.021,0.1,3.047,0.119,3.08c1.043,1.776,2.574,2.988,4.424,3.832
		c1.314,0.6,2.69,1.016,4.087,1.373c1.519,0.389,3.041,0.76,4.554,1.165c0.86,0.23,1.7,0.53,2.481,0.968
		c0.147,0.082,0.294,0.167,0.458,0.236c-0.116-0.306-0.347-0.566-0.26-0.988c0.069,0.094,0.1,0.171,0.156,0.205
		c0.072,0.043,0.17,0.084,0.246,0.069c0.113-0.023,0.146-0.143,0.127-0.245c-0.02-0.114-0.055-0.232-0.114-0.33
		c-0.071-0.117-0.174-0.213-0.261-0.319c-0.055-0.068-0.106-0.14-0.155-0.203c0.024-0.03,0.029-0.042,0.035-0.042
		c0.325,0,0.593-0.116,0.772-0.393c0.204-0.316,0.269-0.661,0.17-1.028c-0.038-0.14-0.091-0.276-0.147-0.444
		c0.323,0.106,0.456,0.359,0.594,0.633c0.108-0.277,0.098-0.6,0.365-0.815c0.041,0.054,0.077,0.102,0.114,0.15
		c0.184,0.241,0.285,0.266,0.562,0.133c0.628-0.302,1.271-0.573,1.944-0.76c0.062-0.018,0.123-0.037,0.186-0.05
		c0.24-0.051,0.437-0.161,0.609-0.345c0.248-0.264,0.558-0.293,0.849-0.116c0.175,0.106,0.222,0.191,0.169,0.388
		c-0.041,0.149-0.042,0.276,0.024,0.424c0.114,0.261-0.091,0.75-0.35,0.876c-0.074,0.036-0.153,0.061-0.23,0.089
		c-0.662,0.241-1.182,0.659-1.572,1.242c-0.117,0.175-0.235,0.352-0.338,0.535c-0.178,0.312-0.435,0.462-0.795,0.427
		c-0.062-0.006-0.123,0-0.234,0c0.055,0.068,0.078,0.128,0.111,0.134c0.171,0.029,0.344,0.066,0.516,0.06
		c0.205-0.007,0.329,0.051,0.446,0.233c0.157,0.245,0.364,0.459,0.558,0.68c0.255,0.289,0.527,0.563,0.775,0.858
		c0.341,0.402,0.62,0.846,0.752,1.363c0.167,0.656,0.085,1.292-0.188,1.907c-0.055,0.125-0.115,0.249-0.171,0.372
		c0.184,0.09,0.295,0.069,0.372-0.113c0.117-0.278,0.226-0.563,0.295-0.856c0.062-0.265,0.064-0.543,0.096-0.834
		c0.041,0.014,0.094,0.021,0.137,0.046c0.621,0.361,1.293,0.416,1.973,0.276c0.599-0.125,1.195-0.29,1.771-0.494
		c0.448-0.158,0.851-0.14,1.276,0.047c0.814,0.357,1.642,0.684,2.509,0.895c0.053,0.013,0.108,0.021,0.161,0.036
		c0.243,0.064,0.257,0.077,0.249,0.334c-0.005,0.172,0.07,0.299,0.188,0.411c0.188,0.176,0.378,0.348,0.56,0.53
		c0.081,0.081,0.203,0.177,0.135,0.305c-0.069,0.129-0.21,0.065-0.327,0.049c-0.547-0.076-1.076-0.224-1.593-0.417
		c-0.086-0.031-0.169-0.07-0.25-0.113c-0.109-0.058-0.13-0.149-0.078-0.255c0.024-0.051,0.057-0.096,0.084-0.144
		c0.145-0.259,0.111-0.404-0.162-0.529c-0.241-0.109-0.495-0.191-0.747-0.276c-0.355-0.123-0.721-0.217-1.067-0.361
		c-0.424-0.176-0.716,0.016-1.027,0.292c0.083,0.104,0.148,0.202,0.228,0.287c0.638,0.676,1.401,1.18,2.223,1.601
		c0.228,0.117,0.457,0.229,0.677,0.339c0.005,0.048,0.019,0.079,0.01,0.101c-0.091,0.236,0.014,0.408,0.184,0.557
		c0.208,0.18,0.422,0.354,0.626,0.539c0.084,0.077,0.181,0.166,0.1,0.343c-0.128,0-0.273,0.016-0.414-0.003
		c-0.563-0.078-1.121-0.19-1.658-0.382c-0.248-0.089-0.276-0.131-0.213-0.388c0.058-0.232,0.014-0.444-0.101-0.635
		c-0.112-0.187-0.243-0.371-0.395-0.526c-0.44-0.453-0.96-0.79-1.536-1.051c-0.348-0.158-0.661-0.154-0.983,0.071
		c-0.368,0.258-0.751,0.494-1.133,0.733c-1.135,0.713-2.337,1.265-3.656,1.542c-0.09,0.019-0.18,0.037-0.271,0.049
		c-0.348,0.048-0.671,0.163-0.993,0.304c-0.771,0.337-1.583,0.5-2.422,0.575c-1.054,0.092-2.089-0.034-3.121-0.204
		c-0.575-0.095-1.07,0-1.488,0.432c-0.242,0.25-0.497,0.49-0.767,0.71c-0.821,0.674-1.769,1.105-2.775,1.423
		c-0.385,0.121-0.77,0.241-1.147,0.38c-0.654,0.24-1.115,0.68-1.383,1.333c-0.234,0.57-0.539,1.105-0.9,1.606
		c-0.04,0.055-0.066,0.12-0.129,0.235c0.141-0.046,0.227-0.067,0.308-0.1c0.772-0.31,1.359-0.83,1.74-1.57
		c0.134-0.26,0.254-0.532,0.348-0.809c0.121-0.356,0.356-0.558,0.712-0.657c0.671-0.187,1.33-0.415,1.959-0.72
		c0.742-0.361,1.409-0.825,1.993-1.407c0.137-0.137,0.279-0.267,0.425-0.392c0.188-0.161,0.413-0.244,0.66-0.232
		c0.208,0.01,0.414,0.047,0.671,0.078c-0.082,0.122-0.132,0.205-0.189,0.282c-0.48,0.63-1.078,1.133-1.77,1.507
		c-0.612,0.331-1.251,0.61-1.881,0.91c-0.373,0.176-0.755,0.334-1.122,0.522c-0.446,0.23-0.812,0.553-1.109,0.968
		c-1.178,1.653-2.805,2.663-4.723,3.239c-0.325,0.097-0.658,0.167-0.987,0.248c-0.044,0.011-0.09,0.029-0.133,0.023
		c-0.04-0.005-0.102-0.033-0.108-0.06c-0.01-0.045,0.008-0.105,0.035-0.144c0.024-0.034,0.075-0.05,0.116-0.071
		c0.583-0.284,1-0.734,1.31-1.295C2.8,24.41,2.838,24.347,2.867,24.28c0.061-0.137,0.166-0.189,0.309-0.179
		c0.028,0.002,0.055-0.003,0.083,0c0.502,0.069,0.817-0.193,1.056-0.591c0.336-0.561,0.529-1.172,0.599-1.815
		c0.042-0.406,0.235-0.653,0.604-0.803c0.313-0.128,0.625-0.268,0.919-0.434c0.728-0.413,1.244-1.025,1.575-1.787
		c0.264-0.605,0.505-1.221,0.753-1.832C8.779,16.803,8.771,16.756,8.777,16.648 M20.671,15.415c0.165,0.054,0.252,0.004,0.283-0.125
		c0.029-0.124,0.053-0.251,0.059-0.379c0.059-1.105-0.683-2.189-2.036-2.458c-0.033-0.007-0.069,0.007-0.158,0.02
		C20.201,13.004,20.86,13.944,20.671,15.415 M19.516,6.97c-0.292,0.022-0.485,0.184-0.661,0.365
		c-0.133,0.136-0.268,0.281-0.27,0.517C18.81,7.717,19.008,7.604,19.2,7.48C19.373,7.37,19.509,7.229,19.516,6.97"/>
	<path fill="#FFFFFF" d="M9.953,21.227c-0.045,0.109-0.065,0.167-0.092,0.221c-0.295,0.584-0.433,1.211-0.438,1.859
		c-0.013,1.552-0.015,3.104,0.002,4.655c0.004,0.362,0.073,0.732,0.168,1.083c0.189,0.703,0.639,1.185,1.339,1.417
		c0.681,0.226,1.365,0.249,2.055,0.041c0.8-0.243,1.26-0.789,1.412-1.599c0.046-0.25,0.064-0.51,0.064-0.766
		c0.005-1.671-0.001-3.341,0-5.013c0.002-0.582-0.062-1.153-0.222-1.713c-0.016-0.053-0.025-0.107-0.036-0.16
		c-0.001-0.007,0.008-0.017,0.023-0.043c0.047-0.006,0.109-0.021,0.168-0.021c2.25-0.001,4.5-0.025,6.748,0.009
		c1.139,0.018,2.269,0.189,3.328,0.646c0.368,0.159,0.73,0.35,1.056,0.582c0.54,0.385,0.883,0.915,0.905,1.595
		c0.022,0.767-0.363,1.327-0.974,1.747c-0.321,0.221-0.687,0.346-1.057,0.457c-0.198,0.06-0.397,0.122-0.598,0.235
		c0.074,0.026,0.146,0.056,0.22,0.078c0.476,0.141,0.942,0.306,1.38,0.542c0.358,0.193,0.686,0.425,0.958,0.731
		c0.823,0.924,0.839,2.166,0.039,3.11c-0.295,0.349-0.661,0.606-1.063,0.815c-0.708,0.368-1.465,0.577-2.246,0.71
		c-0.978,0.167-1.965,0.229-2.959,0.226c-1.625-0.007-3.25-0.002-4.875-0.002h-0.331c0.023-0.275,0.043-0.526,0.069-0.817
		c-0.112,0.045-0.188,0.07-0.258,0.106c-0.792,0.403-1.635,0.651-2.513,0.764c-0.608,0.079-1.223,0.15-1.834,0.148
		c-1.086-0.004-2.159-0.143-3.167-0.591c-1.309-0.583-2.012-1.607-2.186-3.009c-0.043-0.354-0.053-0.714-0.056-1.071
		c-0.007-0.955,0.002-1.91-0.005-2.865c-0.002-0.176,0.047-0.278,0.205-0.374c0.897-0.546,1.658-1.248,2.264-2.105
		c0.384-0.543,0.867-0.939,1.48-1.187C9.254,21.534,9.578,21.388,9.953,21.227 M18.915,27.6c-0.007,0.145-0.016,0.244-0.016,0.342
		c-0.001,0.614-0.001,1.228,0,1.842c0,0.22,0,0.44,0.006,0.66c0.006,0.242,0.028,0.268,0.274,0.26
		c0.238-0.007,0.476-0.022,0.712-0.048c0.456-0.05,0.904-0.134,1.327-0.325c0.297-0.134,0.56-0.312,0.747-0.586
		c0.348-0.511,0.278-1.114-0.211-1.494c-0.205-0.16-0.451-0.281-0.697-0.372c-0.554-0.206-1.14-0.252-1.727-0.278
		C19.205,27.595,19.078,27.6,18.915,27.6 M18.895,25.779c0.069,0.019,0.104,0.032,0.138,0.034c0.497,0.018,0.988-0.018,1.468-0.155
		c0.395-0.112,0.757-0.281,1.011-0.621c0.343-0.461,0.295-1.028-0.135-1.408c-0.128-0.114-0.284-0.2-0.438-0.277
		c-0.35-0.172-0.733-0.232-1.116-0.264c-0.289-0.024-0.581-0.005-0.91-0.005C18.878,23.995,18.9,24.886,18.895,25.779"/>
	<path fill="#FFFFFF" d="M6.801,0C6.837,0.193,6.87,0.379,6.909,0.563c0.305,1.439,0.96,2.707,1.89,3.838
		c0.846,1.029,1.844,1.892,2.928,2.656c0.757,0.534,1.542,1.029,2.302,1.559c0.376,0.26,0.731,0.552,1.084,0.844
		c0.106,0.087,0.178,0.22,0.266,0.332c-0.013,0.015-0.025,0.03-0.037,0.045c-0.049-0.011-0.101-0.015-0.147-0.034
		c-1.227-0.493-2.495-0.857-3.78-1.157C10.489,8.43,9.7,7.983,9.018,7.318C7.982,6.309,7.156,5.171,6.727,3.774
		C6.367,2.604,6.35,1.429,6.672,0.248c0.019-0.071,0.044-0.14,0.07-0.208C6.747,0.028,6.768,0.021,6.801,0"/>
	<path fill="#FFFFFF" d="M13.56,12.03c-1.275,0.037-2.491,0.358-3.712,0.649c-0.633,0.149-1.267,0.302-1.908,0.399
		c-1.5,0.226-2.886-0.042-4.086-1.029c-0.371-0.306-0.693-0.656-0.94-1.071c-0.031-0.051-0.056-0.106-0.071-0.171
		c0.826,0.7,1.807,1.011,2.846,1.15c0.864,0.117,1.735,0.165,2.609,0.091c0.384-0.032,0.77-0.043,1.153-0.061
		c0.825-0.04,1.65-0.096,2.476-0.107c0.475-0.006,0.95,0.061,1.425,0.099C13.421,11.985,13.49,12.013,13.56,12.03"/>
	<path fill="#FFFFFF" d="M9.12,8.08C8.6,7.938,8.081,7.797,7.562,7.656C7.112,7.534,6.82,7.238,6.632,6.824
		C6.449,6.418,6.35,5.987,6.312,5.549C6.265,5.011,6.252,4.47,6.253,3.92C6.852,5.554,7.851,6.899,9.12,8.08"/>
</g>
</svg>
